D:\school\WTK\thesis\model\3dpredictsim\Results\Batchsim_tmt_linear_v2\Pog_s1_tmt_bCst_d05_k800_ig24_act_GRF.mot
nRows=25
nColumns=19

name D:\school\WTK\thesis\model\3dpredictsim\Results\Batchsim_tmt_linear_v2\Pog_s1_tmt_bCst_d05_k800_ig24_act_GRF.mot
datacolumns 19
datarows 25
range 0.6422023185 0.9504594315
endheader
time 	ground_force_vx	ground_force_vy	ground_force_vz	ground_force_px	ground_force_py	ground_force_pz	1_ground_force_vx	1_ground_force_vy	1_ground_force_vz	1_ground_force_px	1_ground_force_py	1_ground_force_pz	ground_torque_x	ground_torque_y	ground_torque_z	1_ground_torque_x	1_ground_torque_y	1_ground_torque_z
        0.6422023185	      109.3635381220	      403.7505538418	       -4.4118431516	        0.4225371470	        0.0000000000	        0.0452953491	      -31.3385482297	       24.5737963686	       -2.7985928159	        1.0330890475	        0.0000000000	       -0.0528566883	        0.0000000000	        0.0000000000	        0.0000000000	        0.0000000000	        0.0000000000	        0.0000000000	
        0.6550463649	       45.5480304926	      266.2053943533	        4.4723284320	        0.4598795721	        0.0000000000	        0.0424772621	     -117.7391084440	      113.8803237800	      -11.8803912772	        1.0411798837	        0.0000000000	       -0.0521085883	        0.0000000000	        0.0000000000	        0.0000000000	        0.0000000000	        0.0000000000	        0.0000000000	
        0.6678904113	       17.2800497328	      202.2276256804	       10.0203962954	        0.4816017568	        0.0000000000	        0.0392517054	      -79.5102377123	      337.1033895604	       -0.5777375830	        1.0467710564	        0.0000000000	       -0.0514476774	        0.0000000000	        0.0000000000	        0.0000000000	        0.0000000000	        0.0000000000	        0.0000000000	
        0.6807344577	       18.8292773689	      166.6545369266	       10.5196819207	        0.4819465386	        0.0000000000	        0.0394346151	      -95.7458871830	      569.8400268871	        8.0496887913	        1.0496624554	        0.0000000000	       -0.0515404655	        0.0000000000	        0.0000000000	        0.0000000000	        0.0000000000	        0.0000000000	        0.0000000000	
        0.6935785040	       13.7107597602	      121.0934616175	       15.3941685993	        0.4824158677	        0.0000000000	        0.0399755797	     -153.6561846589	      793.0548135418	       16.2518117215	        1.0587629129	        0.0000000000	       -0.0535052155	        0.0000000000	        0.0000000000	        0.0000000000	        0.0000000000	        0.0000000000	        0.0000000000	
        0.7064225504	        3.1608565753	       67.5828568591	       14.5269109853	        0.4825601063	        0.0000000000	        0.0404047502	     -191.6544458674	      935.1220685584	       21.0827987809	        1.0689371751	        0.0000000000	       -0.0558440663	        0.0000000000	        0.0000000000	        0.0000000000	        0.0000000000	        0.0000000000	        0.0000000000	
        0.7192665968	       -8.7829143821	       13.7375558311	        3.2613164889	        0.4791797167	        0.0000000000	        0.0399428999	     -189.5402196981	      929.8023531303	       20.9549467370	        1.0757974254	        0.0000000000	       -0.0572678063	        0.0000000000	        0.0000000000	        0.0000000000	        0.0000000000	        0.0000000000	        0.0000000000	
        0.7321106431	        0.5521224988	       -0.4485838218	        0.0372664693	        0.0000000000	        0.0000000000	        0.0000000000	     -163.9399952227	      859.1516623820	       19.4697806935	        1.0808708289	        0.0000000000	       -0.0581960713	        0.0000000000	        0.0000000000	        0.0000000000	        0.0000000000	        0.0000000000	        0.0000000000	
        0.7449546895	       -5.2302235027	        3.6244456410	       -0.3846052354	        0.0000000000	        0.0000000000	        0.0000000000	     -144.5689008631	      784.3848072439	       16.2780376470	        1.0849652411	        0.0000000000	       -0.0588661356	        0.0000000000	        0.0000000000	        0.0000000000	        0.0000000000	        0.0000000000	        0.0000000000	
        0.7577987359	       -3.9792078919	        2.4147242763	       -0.3180410796	        0.0000000000	        0.0000000000	        0.0000000000	     -126.7567234773	      740.2659022192	       14.9267714216	        1.0888807241	        0.0000000000	       -0.0592746998	        0.0000000000	        0.0000000000	        0.0000000000	        0.0000000000	        0.0000000000	        0.0000000000	
        0.7706427823	       -2.6113949480	        1.4436389926	       -0.1956274697	        0.0000000000	        0.0000000000	        0.0000000000	     -113.7752535568	      716.3580981475	       14.9995055399	        1.0937395670	        0.0000000000	       -0.0597014778	        0.0000000000	        0.0000000000	        0.0000000000	        0.0000000000	        0.0000000000	        0.0000000000	
        0.7834868286	       -1.9888686416	        1.0267121985	       -0.1349277717	        0.0000000000	        0.0000000000	        0.0000000000	     -104.9411908886	      701.5866293072	       15.1813551480	        1.0997046666	        0.0000000000	       -0.0597045598	        0.0000000000	        0.0000000000	        0.0000000000	        0.0000000000	        0.0000000000	        0.0000000000	
        0.7963308750	       -1.3662013791	        0.6720992847	       -0.0761598182	        0.0000000000	        0.0000000000	        0.0000000000	      -94.9240158553	      681.1981846712	       14.8883191726	        1.1053345002	        0.0000000000	       -0.0595421899	        0.0000000000	        0.0000000000	        0.0000000000	        0.0000000000	        0.0000000000	        0.0000000000	
        0.8091749214	       -0.9485919994	        0.4488536490	       -0.0427663534	        0.0000000000	        0.0000000000	        0.0000000000	      -85.5979249856	      658.0115107167	       14.9171323839	        1.1104326995	        0.0000000000	       -0.0593479696	        0.0000000000	        0.0000000000	        0.0000000000	        0.0000000000	        0.0000000000	        0.0000000000	
        0.8220189677	       -0.7303826955	        0.3344249394	       -0.0257835984	        0.0000000000	        0.0000000000	        0.0000000000	      -77.5755676493	      637.1679325709	       15.2602048280	        1.1151998272	        0.0000000000	       -0.0590767742	        0.0000000000	        0.0000000000	        0.0000000000	        0.0000000000	        0.0000000000	        0.0000000000	
        0.8348630141	       -0.6391077420	        0.2847539959	       -0.0171093474	        0.0000000000	        0.0000000000	        0.0000000000	      -70.0060657383	      619.5073679904	       15.8403275557	        1.1196026918	        0.0000000000	       -0.0588065169	        0.0000000000	        0.0000000000	        0.0000000000	        0.0000000000	        0.0000000000	        0.0000000000	
        0.8477070605	       -0.6306230567	        0.2741191485	       -0.0125643368	        0.0000000000	        0.0000000000	        0.0000000000	      -62.7408540211	      604.8463110907	       16.7453369386	        1.1236877443	        0.0000000000	       -0.0585504226	        0.0000000000	        0.0000000000	        0.0000000000	        0.0000000000	        0.0000000000	        0.0000000000	
        0.8605511069	       -0.6968386272	        0.2960350999	       -0.0101923156	        0.0000000000	        0.0000000000	        0.0000000000	      -55.9173295827	      592.4995008108	       17.7221379855	        1.1274578157	        0.0000000000	       -0.0583003828	        0.0000000000	        0.0000000000	        0.0000000000	        0.0000000000	        0.0000000000	        0.0000000000	
        0.8733951532	       -0.8339253920	        0.3468947996	       -0.0089365100	        0.0000000000	        0.0000000000	        0.0000000000	      -49.7558438634	      582.0327431995	       18.6556559212	        1.1309209288	        0.0000000000	       -0.0580538339	        0.0000000000	        0.0000000000	        0.0000000000	        0.0000000000	        0.0000000000	        0.0000000000	
        0.8862391996	       -1.0361565808	        0.4230309086	       -0.0078816152	        0.0000000000	        0.0000000000	        0.0000000000	      -44.1566593637	      572.9549103698	       19.1943403805	        1.1340580320	        0.0000000000	       -0.0578167387	        0.0000000000	        0.0000000000	        0.0000000000	        0.0000000000	        0.0000000000	        0.0000000000	
        0.8990832460	       -1.2844458251	        0.5159210767	       -0.0063549274	        0.0000000000	        0.0000000000	        0.0000000000	      -39.0586881865	      564.4165655110	       19.6022548217	        1.1368404428	        0.0000000000	       -0.0575893630	        0.0000000000	        0.0000000000	        0.0000000000	        0.0000000000	        0.0000000000	        0.0000000000	
        0.9119272923	       -1.5430986080	        0.6112801257	       -0.0043948524	        0.0000000000	        0.0000000000	        0.0000000000	      -34.2657300378	      556.2983000885	       20.0639082565	        1.1392712188	        0.0000000000	       -0.0573689897	        0.0000000000	        0.0000000000	        0.0000000000	        0.0000000000	        0.0000000000	        0.0000000000	
        0.9247713387	       -1.7651213810	        0.6912702514	       -0.0024830748	        0.0000000000	        0.0000000000	        0.0000000000	      -29.5149676470	      548.6189441598	       20.6105885701	        1.1413506177	        0.0000000000	       -0.0571567903	        0.0000000000	        0.0000000000	        0.0000000000	        0.0000000000	        0.0000000000	        0.0000000000	
        0.9376153851	       -1.9204366788	        0.7448190072	       -0.0009522545	        0.0000000000	        0.0000000000	        0.0000000000	      -24.5710406443	      541.3835002209	       20.9649116869	        1.1431059960	        0.0000000000	       -0.0569556112	        0.0000000000	        0.0000000000	        0.0000000000	        0.0000000000	        0.0000000000	        0.0000000000	
        0.9504594315	       -2.0159028392	        0.7749358777	       -0.0000406800	        0.0000000000	        0.0000000000	        0.0000000000	      -19.4256616729	      535.1640035709	       21.0614732469	        1.1445970068	        0.0000000000	       -0.0567629848	        0.0000000000	        0.0000000000	        0.0000000000	        0.0000000000	        0.0000000000	        0.0000000000	
